<svg width="400" height="400" viewBox="0 0 400 400" fill="none" xmlns="http://www.w3.org/2000/svg">
<circle cx="200" cy="200" r="200" fill="black"/>
<path d="M184.802 60.9893C194.239 55.6703 205.761 55.6703 215.198 60.9893L308.198 113.418C317.96 118.922 324 129.273 324 140.498V259.502C324 270.726 317.96 281.078 308.198 286.581L215.198 339.01C205.761 344.33 194.239 344.33 184.802 339.01L91.8019 286.581C82.0407 281.078 76 270.726 76 259.502L76 140.498C76 129.273 82.0407 118.922 91.8019 113.418L184.802 60.9893Z" stroke="#FFFBFB" stroke-width="10" stroke-linecap="round" stroke-linejoin="round"/>
<path d="M161.44 166.776C165.346 157.957 170.791 151.239 177.775 146.623C184.818 142.006 192.986 139.698 202.278 139.698C207.249 139.698 211.777 140.32 215.861 141.562C220.004 142.805 223.673 144.611 226.869 146.978C230.125 149.286 232.877 152.127 235.126 155.501C237.375 158.815 239.121 162.633 240.364 166.953H279.426C278.183 157.957 275.372 149.73 270.992 142.273C266.612 134.756 260.96 128.275 254.036 122.83C247.17 117.385 239.298 113.183 230.42 110.224C221.543 107.205 211.955 105.696 201.656 105.696C189.642 105.696 178.485 107.797 168.187 111.999C157.888 116.201 148.863 122.327 141.109 130.376C133.356 138.426 127.319 148.25 122.999 159.851M244.092 220.486C244.092 228.24 242.435 234.957 239.121 240.639C235.866 246.321 231.131 250.73 224.916 253.867C218.761 256.945 211.333 258.484 202.633 258.484C193.045 258.484 184.729 256.175 177.686 251.559C170.643 246.883 165.198 240.107 161.351 231.229L127.349 248.984C134.569 262.893 144.631 273.635 157.533 281.211C170.436 288.728 185.41 292.486 202.455 292.486C217.725 292.486 231.279 289.408 243.116 283.253C254.953 277.038 264.245 268.22 270.992 256.797C277.739 245.315 281.113 231.584 281.113 215.604V192.699H243.071H205.03V221.641" stroke="white" stroke-width="10"/>
</svg>
